<?xml version="1.0" encoding="UTF-8"?>
<!DOCTYPE svg PUBLIC "-//W3C//DTD SVG 1.1//EN" "http://www.w3.org/Graphics/SVG/1.1/DTD/svg11.dtd">
<!-- Creator: CorelDRAW -->
<svg xmlns="http://www.w3.org/2000/svg" xml:space="preserve" width="5.09719in" height="1.5055in" version="1.1" style="shape-rendering:geometricPrecision; text-rendering:geometricPrecision; image-rendering:optimizeQuality; fill-rule:evenodd; clip-rule:evenodd"
viewBox="0 0 5097.19 1505.49"
 xmlns:xlink="http://www.w3.org/1999/xlink"
 xmlns:xodm="http://www.corel.com/coreldraw/odm/2003">
 <defs>
  <style type="text/css">
   <![CDATA[
    .fil1 {fill:#0C195E}
    .fil0 {fill:#4D4D4D;fill-rule:nonzero}
   ]]>
  </style>
 </defs>
 <g id="Layer_x0020_1">
  <metadata id="CorelCorpID_0Corel-Layer"/>
  <g id="_9WW">
   <path id="_2ndCol-5" class="fil0" d="M110.94 985.49l44.35 0c79.4,0 147.83,-30.13 173.42,-118.32 22.08,-76.13 -28.39,-111.73 -100.65,-111.73l-50.39 0 -66.72 230.05zm2744.82 -769.73l263.37 0 -22.87 78.86 -177.93 0 -20.98 72.31 168.08 0 -22.88 78.87 -168.09 0 -22.87 78.85 187.82 0 -22.88 78.86 -273.23 0 112.47 -387.75zm-423.05 308.89l44.33 0c79.39,0 147.81,-30.11 173.38,-118.28 22.11,-76.15 -28.34,-111.76 -100.62,-111.76l-50.37 0 -66.72 230.04zm4.18 -308.89l128.12 0c124.83,0 214.02,53.13 172.86,194.99 -36.37,125.4 -158.3,192.77 -273.85,192.77l-139.63 0 112.49 -387.76zm-446.28 0l116.08 0 86.66 269.45 1.1 0 78.15 -269.45 85.4 0 -112.47 387.75 -111.68 0 -89.12 -276.03 -1.1 0 -80.09 276.03 -85.41 0 112.47 -387.75zm-163.17 0l85.43 0 -112.48 387.75 -85.42 0 112.47 -387.75zm-340.59 0l263.37 0 -22.86 78.86 -177.94 0 -20.98 72.31 168.08 0 -22.88 78.87 -168.09 0 -22.86 78.85 187.81 0 -22.88 78.86 -273.23 0 112.47 -387.75zm-520.19 0l129.2 0 15.89 253.03 1.1 0 163.17 -253.03 128.68 0 -112.49 387.75 -85.4 0 86.28 -297.38 -1.1 0 -188.13 297.38 -65.15 0 -11.74 -297.38 -1.1 0 -86.27 297.38 -85.41 0 112.47 -387.75zm-341.67 0l263.37 0 -22.86 78.86 -177.94 0 -20.98 72.31 168.07 0 -22.88 78.87 -168.09 0 -22.86 78.85 187.81 0 -22.88 78.86 -273.23 0 112.47 -387.75zm-182.85 360.36c-58,26.3 -116.48,37.26 -173.43,37.26 -120.99,0 -186.11,-79.43 -150.05,-203.75 36.06,-124.32 147.28,-203.74 268.26,-203.74 61.33,0 111.58,13.7 139.96,49.83l-79.31 65.73c-15.98,-24.08 -40.28,-36.69 -83.53,-36.69 -72.81,0 -135.68,52.59 -156.66,124.86 -20.98,72.29 11.41,124.88 84.23,124.88 37.23,0 67.61,-10.42 86.04,-19.17l18.28 -62.98 -69.54 0 22.88 -78.87 151.65 0 -58.78 202.63zm2461.66 195.2c-8.62,-17.52 -33.6,-25.72 -54.4,-25.72 -24.08,0 -60.68,10.94 -69.11,39.96 -20.49,70.65 171.22,25.2 131.81,161.01 -25.1,86.55 -106.56,127.62 -186.5,127.62 -49.85,0 -89.36,-14.78 -116.18,-48.73l80.16 -66.82c10.84,23 35.35,36.7 63.81,36.7 27.92,0 62.97,-13.16 70.89,-40.53 20.65,-71.2 -172.24,-32.86 -134.74,-162.14 23.98,-82.68 108.26,-125.96 184.36,-125.96 43.81,0 82.63,11.5 107.08,40.54l-77.18 64.07zm-509.67 -94.74l85.43 0 -89.63 308.91 158.26 0 -22.88 78.84 -243.67 0 112.49 -387.74zm-399.72 0l263.38 0 -22.88 78.85 -177.96 0 -20.98 72.29 168.11 0 -22.9 78.87 -168.07 0 -22.88 78.89 187.81 0 -22.88 78.84 -273.23 0 112.48 -387.74zm-379.46 0l260.09 0 -22.88 78.85 -174.68 0 -22.88 78.87 161.54 0 -22.87 78.85 -161.53 0 -43.86 151.17 -85.42 0 112.48 -387.74zm-590.82 160.46l50.37 0c31.21,0 72.05,-1.1 84.28,-43.24 11.28,-38.91 -22.02,-44.93 -53.23,-44.93l-55.85 0 -25.57 88.17zm-38.87 -160.46l150.03 0c79.4,0 138.23,27.37 112.02,117.76 -15.73,54.23 -56.98,96.38 -114.6,106.26l51.07 163.75 -102.4 0 -36.08 -155.01 -42.15 0 -44.96 155.01 -85.43 0 112.5 -387.77zm-396.46 0.01l263.37 0 -22.88 78.85 -177.95 0 -20.98 72.29 168.11 0 -22.9 78.87 -168.08 0 -22.88 78.89 187.82 0 -22.88 78.84 -273.24 0 112.49 -387.74zm-473.63 -0.01l128.12 0c124.83,0 214,53.11 172.85,194.98 -36.37,125.4 -158.3,192.79 -273.85,192.79l-139.63 0 112.51 -387.77z"/>
   <path id="_1stCol-5" class="fil1" d="M2028.46 1291.59l77.65 5.95 -38.99 -4.78c39,3.4 77.95,7.15 116.71,12.09 -67.28,-2.43 -145.19,-8.36 -155.37,-13.26zm1998.27 -95.94l0.76 -0.1 -1.16 -0.49c-0.7,-1.05 -1.49,-2.23 -2.13,-3.43l8.18 1.7c-1.8,1.68 14.12,5.69 16.6,7.79 6.65,1.5 26.43,4.76 32.34,3.04 -8.57,1.29 -3.98,4.48 -18.54,2.06 6.77,6.75 22.29,2.81 38.42,6.56l-0.61 2.46c20.4,2.01 24.21,-0.89 31.85,-3.4 1.54,0.26 3,0.5 4.54,0.76 0.17,1.89 -2.43,2.54 -8,4.1 15.15,4.61 40.02,6.07 57.46,9.11 5.2,3.04 1.38,3.75 -4.57,3.84 18.43,0.33 40.53,6.02 52.61,2.09 -4.75,1.64 7.12,2.39 13.72,4.15 -0.12,0.94 0.7,1.76 3.54,1.48 -0.69,-0.59 -1.99,-1.06 -3.54,-1.48 0.12,-1.13 1.59,-2.45 2.37,-2.19 11.39,-1.04 36.07,-0.05 48.89,2.93l-4.85 1.17c17.23,2.17 29.2,0.42 42.38,-0.3 11.49,0.94 23.18,1.69 34.85,2.48 3.13,1.59 -6.33,3.79 4.85,4.45 3.33,-0.94 4.36,-2.6 7.19,-3.6 3.98,0.24 7.99,0.46 12.01,0.7l-0.89 2.58 7.63 -2.27c7.16,0.38 14.33,0.71 21.54,1.01 5.55,0.58 10.5,0.72 15.28,0.73 34.97,1.26 70.52,1.63 106.39,0.96 -1.21,1.22 -2.88,2.41 -6.02,3.54 9.07,0.28 15.11,-2.57 20.84,-3.98 2.42,-0.07 4.85,-0.17 7.28,-0.26 1.46,0.21 2.88,0.18 4.47,0.94 0.61,-0.46 1.68,-0.82 2.67,-1.19 24.71,-0.87 49.5,-2.16 74.34,-4.13 1.69,0.33 3.35,0.72 5.11,0.57 1.45,-0.15 1.57,-0.54 1.29,-1.01 0.85,-0.07 1.71,-0.1 2.58,-0.18 2.03,-0.17 3.89,-0.38 5.9,-0.56 -0.79,0.5 -1.45,1 -1.52,1.43 7.35,-0.1 13.46,-1.48 19.64,-3.13 315.89,-30.89 299.64,-111.02 299.64,-111.02 0.05,-2.83 -0.58,-5.63 -1.7,-8.41 0.28,-0.25 0.74,-0.21 0.85,-0.73 2.6,1.69 4.94,3.68 6.09,3.09 0.65,-0.96 2.44,-2.78 -2.86,-13.79 -6.04,-5.45 -21.72,-13.41 -22.97,-17.7l-2.7 2.65c-22.8,-8.59 1.53,-8.76 -26.51,-18.97l5.53 3.2c-5.35,-1.73 -10.28,-0.89 -15.87,-3.63 -1.5,-1.48 2.44,-0.87 4.99,-0.99 -8.25,-0.77 -16.41,-1.27 -24.52,-1.4 -0.49,-2.28 0.61,-3.17 5.67,-3.63 -21.52,-4.74 2.84,7.05 -22.97,0.33 -4.43,-2.49 2.09,-1.85 5.81,-2.35 -11.57,-5.57 -20.39,-4 -33.2,-4.09 0.28,-3.19 8.57,-1.57 -1.56,-5.18 1.85,1.97 2.72,4.94 -5.29,4.2 4.31,-2.74 -5.87,-2.53 -13.56,-4.38 1.45,1.37 0.67,2.74 -2.44,2.99 -3.87,0.1 -7,-1.52 -12.37,-1.89l9.2 4.19c-13.69,1.61 -20.77,-3.84 -30.89,-5.96 0.89,-0.52 2.69,-0.79 4.74,-0.82 -10.65,-2.27 -21.64,-5.6 -35.43,-3.53l1.19 -0.33c-25.81,2.01 7.59,5.64 -22.29,7.49 -9.76,-0.96 5.04,-10.6 -17.75,-7.3 10.66,3.04 -14.77,6.32 -27.59,7.56l13.37 -6.17c-5.22,-0.17 -14.24,1.57 -17.09,0.93l0.65 1.42c0.67,3.63 -7.35,1.97 -15.46,1.66 -0.11,-0.26 -0.5,-0.48 -0.26,-0.75 -0.83,0.19 -1.68,0.44 -2.49,0.68 -2.81,0.02 -5.54,0.28 -7.77,1.12 11.5,-7.48 12.2,-6.04 14.28,-13.33 -9.15,4.05 -19.57,7.78 -36.33,7.75l13.6 -6.09c-14.76,-0.46 -30.86,3.89 -45.19,8.95 -2.22,0.07 -4.12,0.37 -6.82,0.08 -2.15,-3.22 -10.67,-3.33 -19.83,-3l0.19 2.93 -2.46 0.47 1.59 23.46 2.5 -0.02 0.21 3.09c0.89,-0.19 1.78,-0.37 2.67,-0.58l-2.44 1.76c6.7,-3.4 13.65,-2.17 16.02,-4.14 0.1,-0.01 0.26,-0.05 0.37,-0.05l-0.31 1.87c4.33,-1.85 12.2,-2.95 18.71,-3.65 1,0.07 2.01,0.13 3.44,-0.16l-0.35 -0.15c5.33,-0.52 8.94,-0.77 7.02,-1 0.19,-0.01 0.4,-0.01 0.59,-0.03 0.23,0.89 1.4,1.88 2.79,2.93l0 0 3.79 3.91c0.03,-1.19 -1.96,-2.57 -3.79,-3.91l-0 0 -0.43 -0.49c5.22,0.11 12.34,-1.83 15.78,0.48l-4.8 4.48 7.98 -2.95c2.86,0.83 4.76,2.72 -0.17,3.23 23.51,5.13 0.3,-10.67 31.08,-2.88 -0.75,1.74 -4.28,2.53 -12.6,0.57 -1.68,2.78 0.28,4.64 8.5,6.67 0.12,0.24 -0.02,0.37 -0.02,0.54 -8.56,-1.04 -15.86,-1.65 -19.28,-1.34 1.59,1.03 19.39,4.35 19.29,1.34 15.97,1.8 36.38,5.69 47.35,4.78 2.85,1.92 -0.77,2.41 -4.28,2.93 16.67,5.41 23.7,2.39 39.41,11.01l-7.24 -4.34c11.54,0.31 32.89,9.46 33.79,17.12l-2.29 -0.49c4.16,1.95 3.16,2.39 2.48,3.17 -0.44,-0.21 -2.48,1.38 -3.07,3.51 3.25,-0.98 2.08,1.89 5.8,-0.56 -2.27,5.22 -9.62,11.59 -17.28,16.44l-3.98 -3.49c-4.05,2.46 -8.22,4.96 -12.67,7.15 4.2,0.75 -19.22,5.17 -18.43,9.44 -8.8,0.71 2.41,-4.56 4.66,-7.31 -7.66,3.77 -9.02,2.13 -15.93,6.84l-9.19 -2.06c-6.93,2.7 -13.93,5.36 -21.04,7.8 1.01,-0.63 -0.4,-0.65 0.57,-1.26 -9.33,5.69 -25.84,2.65 -37.91,10.72 0.63,-0.33 0.4,-0.5 0.56,-0.8 -5.88,3.96 -20.79,4.2 -28.57,4.19l-8.94 -0.04 -0.52 6.69c-31.07,2.06 -21.66,1.52 -49.17,8.76 -17.51,-4.08 19.51,-10.24 -2.48,-12.34 -2.69,2.85 -17.61,6.02 -34.57,8.05 -15.69,-0.93 -41.87,-1.12 -57.09,-4.31l1.69 3.46 -21.87 2.69 12.3 -5.53c-3.45,1.29 -14.39,3.94 -21.69,5.81 -22.72,3.65 -13.06,-7.42 -30.65,-1.7 -0.67,-0.39 -1.29,-0.75 -1.67,-1.1 0.8,-0.4 1.42,-0.87 1.84,-1.43 -2.32,0.37 -2.43,0.87 -1.85,1.43 -5.66,2.79 -20.65,2.01 -37.85,3.04l5.99 -4.55 11.17 0.91c-6.04,-4.38 -18.45,0.87 -29.32,0.56 -11.36,1.52 -5.72,5.23 -11.81,6.56 -4.12,-0.21 -10.26,1.03 -13.54,-0.28 -9.98,-1.5 -1,-5.36 2.17,-7.26 -8.69,4.61 -11.66,4.03 -30.98,5.05 -0.98,-2.24 0.44,-3.16 3,-3.47 -4.07,0.4 -7.61,1.22 -9.74,3.11l-6.49 -2.88c-21.82,-4.68 -21.96,7.54 -48.17,5.01 7.08,-2.15 -22.66,-0.35 -30.58,-3.59 9.13,-0.35 -4.08,-6.8 1.54,-9.32 -20.84,-2.51 -8.56,5.03 -25.59,5.37l7.12 -5.37c-16.44,1.78 -4.12,2.86 -20.89,3.94 4.68,-1.45 -7.33,-1.81 2.65,-3.23 -21.8,-1.34 -15.76,-0.97 -35.17,-2.16l-1.89 5.37c-6.46,0.37 -8.75,-2.16 -10.49,-3.23 2.65,0 6.77,0.37 6.44,-0.35 -7.17,-5.04 -12.41,2.18 -20.77,-2.56 2.02,1.85 4.28,4.43 -3.67,4.19 2.76,-3.14 -11.95,-3.94 -12.44,-5.39 4.87,2.65 -17.07,-0.16 -18.39,3.39 -9.01,-3.16 3.07,-2.43 3.69,-4.21 -7.81,3.72 -32.06,-1.69 -39.18,0.23 -0.13,-0.33 -0.49,-0.61 -0.46,-0.82 -3.22,0.62 -7.12,0.98 -11.59,1.26 3.24,-4.11 1.97,1.05 8.08,-7.78 6.2,-8.97 3.14,-5.3 7.96,-12.27 4.8,-6.94 1.64,-18.17 7.19,-9.58 5.57,8.59 3.16,22.85 8.09,11.12 4.92,-11.74 3.41,-5.69 4.92,-14.78 1.5,-9.07 -10.49,-6.06 4.68,-13.37 15.15,-7.33 0.5,0.21 6.02,-28.35 5.5,-28.59 1.54,-17.16 -0.45,-39.11 -1.98,-21.99 -7.47,-31.43 -12.95,-44.63 -5.5,-13.19 -11.86,-36.7 -11.22,-55.15 0.66,-18.48 5.94,-10.11 -0.64,-21.33 -6.6,-11.21 -8.94,-5.55 -10.74,-29.66 -1.82,-24.08 7.23,-8.43 -1.82,-35.22 -9.02,-26.79 -6.31,-17.47 -9.02,-26.79 -2.7,-9.34 -5.43,-3.93 -4.22,-12.93 1.22,-9.06 1.22,-1.22 1.22,-14.17 0,-12.95 2.99,10.54 0.61,-24.69 -2.42,-35.26 -3.94,20.18 -2.42,-35.26 1.48,-55.37 3.59,-52.06 3.59,-63.81 0,-11.73 -5.72,3 0,-13.25 5.74,-16.25 6.34,-11.74 6.34,-17.47 0,-5.71 5.11,10.24 0.3,-9.02 -4.8,-19.27 -9.62,-2.41 -4.8,-19.57 4.8,-17.17 11.12,-10.13 10.63,-29.22 -0.49,-19.08 -4.01,-8.81 -4.01,-26.95 0,-18.14 -2.72,-22.13 -6.74,-35.59 -4,-13.49 -6.02,-41.56 -10.54,-55.33 -4.54,-13.79 -12.48,-20.22 -17.19,-33.43 -4.73,-13.25 -3.41,-13.42 -4.15,-27.58 -0.77,-14.17 -3.79,0.73 -3.6,-24.94 0.21,-25.69 0.75,-11.35 0.75,-26.46 0,-15.1 2.08,-10 2.85,-21.73 0.74,-11.71 6.79,-8.1 -2.27,-18.87 -9.06,-10.79 -6.98,-3.42 -9.06,-13.61 -2.09,-10.19 15.18,-31.94 -20.58,-47.54 -35.74,-15.59 -23.27,1.45 -43.67,-18.47 -20.39,-19.91 -30.46,-9.35 -51.82,-34.08 -21.36,-24.7 -35.03,-40.06 -50.15,-48.2 -15.11,-8.17 -11.99,-1.2 -17.04,-10.58 -5.04,-9.36 9.58,-5.5 -6.25,-12.7 -15.81,-7.21 -8.88,14.4 -17.73,-7.91 -8.9,-22.32 -8.9,-20.89 -8.9,-25.68 0,-4.81 -4,-32.55 -14.66,-43.07 -10.7,-10.51 11.36,-5.23 -14.36,-11.56 -25.76,-6.32 -17.72,-3.84 -29.27,-7.54 -11.55,-3.66 2.64,17 -13.3,-3.66 -15.95,-20.67 -5.44,-13.85 -15.95,-20.67 -10.5,-6.84 7.72,1.22 -14.87,-8.24 -22.58,-9.46 -17.35,-9.09 -37.49,-13.49 -20.14,-4.38 -22.06,-8.74 -38.89,-4.38 -16.81,4.38 -15.58,4.38 -23.65,10.51 -8.03,6.13 16.13,8.76 -11.03,10.68 -27.14,1.96 -3.4,5.13 -27.56,-1.62 -24.15,-6.77 -2.2,-20.79 -24.51,-6.77 -22.3,14.03 -20.94,12.85 -28.2,18.59 -7.28,5.74 5.41,5.09 -18.26,10.67 -23.65,5.55 -22.96,4.89 -26.51,12.65 -3.56,7.77 -8.61,21.28 -12.34,22.8 -3.72,1.54 -11.81,-13.84 -15.05,-1.35 -3.19,12.5 -0.33,24.51 -3.19,28.73 -2.88,4.2 -14.45,16.54 -36.29,18.06 -21.85,1.53 -19.74,0.38 -30.19,11.99 -10.46,11.59 -8.75,13.67 -12.34,21.06 -3.63,7.42 -7.4,5.71 -13.7,10.07 -6.26,4.36 -10.05,14.43 -12.72,22.62 -2.63,8.15 0.79,11 -6.63,20.68 -7.4,9.71 -7.4,15.96 -12.17,26.22 -4.73,10.26 -14.24,40.07 -11.4,43.13 2.86,3.04 10.94,15.61 6.2,27.58 -4.75,11.97 -3.61,12.15 -11.97,18.62 -8.35,6.44 -7.21,10.8 -6.65,21.07 0.59,10.26 5.7,2.67 -4.54,22.41 -10.26,19.74 8.24,13.43 -5.51,31.56 -13.74,18.14 -7.51,9.17 -17.04,22.17 -9.53,13 10.07,6.79 -12.44,16.3 -22.55,9.53 -19.27,24.02 -29.6,43.72 -10.3,19.74 -14.94,16.15 -9,33.81 5.93,17.66 13.02,-7.75 7.61,20.63 -5.41,28.39 8.36,24.38 -10.19,33.54 -18.57,9.15 -20.89,10.3 -20.89,10.3 0,0 20.82,17.54 8.76,28.31 -12.06,10.73 -17.66,4.29 -21.75,15.48 -4.08,11.2 -3.22,12.08 -1.72,16.14 1.52,4.1 0,7.35 1.95,9.93 1.92,2.57 -4.1,0.85 7.1,7.73 11.19,6.89 -1.08,0 12.91,9.49 14,9.46 18.08,4.73 20.46,16.34 2.37,11.66 12.91,12.95 -1.29,18.52 -14.21,5.62 -14.66,-2.35 -16.15,7.14 -1.52,9.46 -3.24,5.15 -2.17,16.77 1.08,11.64 7.31,17.26 15.52,24.79 8.17,7.52 11.42,6.23 10.54,14.87 -0.87,8.59 3.67,-10.79 -1.27,10.96 -4.98,21.76 -3.04,8.39 -5.19,23.93 -2.15,15.5 0.2,9.01 -3,19.36 -3.25,10.33 6.65,10.98 1.92,22.41 -4.73,11.41 -0.2,22.81 -15.06,27.77 -14.87,4.96 -10.05,7.12 -18.78,32.41 -8.75,25.34 -5.13,22.32 -11.87,34.39 -6.74,12.09 -10.22,9.54 -6.96,16.49 3.26,6.99 17.21,-13 5.11,12.8 -12.07,25.78 -6.98,21.82 -13.94,32.99 -6.96,11.15 -11.38,10.21 -14.4,23.91 -3.02,13.72 -4.64,13.47 3.24,22.08 7.91,8.61 15.99,6.16 8.52,18.18 -7.46,12.05 -18.12,5.1 -9.65,17.13 8.48,12.06 7.61,14.42 12.2,18.15 4.59,3.72 5.27,12.72 5.1,14.07 -0.17,1.37 -5.78,-5.97 1.48,12.65 7.29,18.63 6.68,12.54 8.13,24 1.41,11.47 9.67,7.65 2.25,19.34 -7.39,11.69 9.21,35.3 -37.69,35.3 -46.89,0 -138.11,-1.29 -138.11,-1.29 0,0 -12.93,-2 -39.72,-9.37 -26.81,-7.35 -11.24,-12.32 -35.44,-13.61 -24.21,-1.31 -10.37,3.46 -29.19,-2.6 -18.8,-6.06 -5.2,3.91 -18.8,-6.69 -13.62,-10.61 7.35,6.48 -17.09,-9.3 -24.41,-15.78 -17.71,-12.97 -25.72,-16.65 -7.98,-3.67 -20.74,-13.84 -27.44,-4.1 -6.69,9.72 -16.43,8.41 -18.15,13.84 -1.73,5.39 6.26,12.74 -6.27,9.5 -12.55,-3.25 -14.7,-2.58 -26.17,-15.78 -11.47,-13.17 -15.34,-17.3 -27.22,-17.93 -11.89,-0.64 -19.24,-2.58 -19.24,-2.58 0,0 -3.02,12.1 0,20.07 3.04,8.01 4.98,8.88 6.49,13.63 1.5,4.75 5.4,7.35 1.71,11.24 -3.67,3.89 -7.7,5.6 -29.67,2.06 -21.99,-3.52 -27.67,-9.02 -50.02,-6.91 -22.36,2.13 -34.42,-10.1 -34.42,-10.1 0,0 -8.91,-13.35 -42.94,1.06 -34,14.43 -6.3,7.02 -30.17,7.22 -23.88,0.23 -22.5,-0.02 -37.32,11.05 -1.29,0.96 -30.59,11.86 -52.2,19.92 -9.63,0.18 -18.24,0.65 -25.45,1.5 -48.7,-8.71 -190.04,-21.26 -233.62,-19.33 -62.5,3.44 54.54,8.48 31.07,13 -48.56,-1.8 -73.76,-8.13 -146.28,-9.01 -1.06,-5.43 143.91,-5.44 7.52,-13.73l-19.25 2.41c14.19,-0.28 33.63,-0.37 53.42,1.01 39.29,4.7 -23.87,2.7 -33,3.82l-146.54 -4.61c-10.61,-5.94 77.13,-2.91 86.26,-4.17 -58.12,-0.61 -122.14,0.4 -185.09,2.74 -31.63,0.71 -62.8,1.43 -92.76,2.11 -30.07,0.95 -59.03,1.42 -86.05,1.07l10.3 1.9c-137.85,-1.88 -79.59,12.87 -189.48,8.1 -57.54,4.29 21.24,4.76 -65.7,9.91 -24.52,1.78 -10.36,-1.41 -6.04,-2.44 -107.01,5.63 -46.36,8.62 -145.47,10.66 5.6,0.94 11.22,2.18 16.84,3.35 -10.35,0.86 -20.61,1.85 -30.94,2.76 -47.07,2.24 -95.02,4.52 -141.49,6.74 -58.12,4.78 -114.46,9.56 -164.38,18.01 6.98,3.18 69.22,-4.85 94.65,-4.7 -69.18,3.6 -150.4,17.06 -230.16,30.41 -78.87,15.88 -155.91,31.39 -218.66,44.05 35.26,-12.39 -61.5,4.7 16,-16.83 22.41,0.91 58.14,-10.91 101.13,-18.57 -36.81,0.17 -108.12,17.02 -172.4,35.12 -64.49,17.68 -121.95,36.39 -134.74,34.03l-15.58 9.62c-18.82,4.71 -67.2,16.35 -35.64,4.8 -43.74,14.85 -86.99,30.96 -129.11,49.27 46.88,-16.2 147.73,-40.14 176.48,-53.36 39.83,-6.56 -52.71,19.3 -16.83,14.63 -45.78,9.9 -58.76,15.48 -71.72,21.5 -8.52,4.22 -17.38,8.57 -35.19,15.83 -14.52,2.24 -19.11,2.33 6.67,-4.13 -32.58,6.39 -118.39,24.83 -145.67,31.75l1.27 2.09c-0.12,0.02 -0.35,0.05 -0.47,0.07l4.57 7.51c-0.59,0.11 -0.9,0.14 -1.63,0.24l3.67 6.04c-2.32,1.26 -4.31,2.34 -6.95,3.77l-106.45 57.84 124.74 -27.77c2.55,-0.57 5.41,-1.17 8.17,-1.75l3.56 5.87c0.33,-0.09 1.04,-0.37 1.48,-0.51l-3.46 -5.7c0.16,-0.02 0.3,-0.05 0.44,-0.09l3.43 5.64c-0.12,0.06 -0.28,0.11 -0.4,0.14l4.37 7.2c0.19,-0.07 0.23,-0.09 0.42,-0.16l-4.38 -7.17c2.38,-0.81 5.66,-2.07 8.73,-3.24l-5.08 5.05c16.95,-9.06 12.85,-8 5.08,-5.05l5.97 -6.06c30.31,-5.87 64.57,-11.57 81.79,-13.86 54.12,-11.03 177.39,-40.48 266.2,-52.72 -33.81,3.71 -87.25,10.15 -84.6,5.29 43.85,-5.13 91.18,-13.44 98.07,-19.78 -155.79,18.29 -46.6,18.69 -186.23,39.39 -28.8,1.06 -59.76,4.81 -107.76,13.75 11.61,-4.49 23.15,-8.8 34.63,-12.93 2.39,-0.49 4.87,-0.98 7.28,-1.47 34.18,-5.06 71.72,-11.91 110.81,-20.14 60.23,-10.89 123.48,-24.1 181.94,-29.74 49.43,-3.84 14.72,8.82 124.85,-6.14 -31.26,5.5 -62.3,11.87 -93.41,17.75 102.82,-18.83 25.05,-0.78 111.07,-11.38l-34.99 0.77c52.3,-7.93 71.8,-9.62 101.5,-10.7l-45.76 -0.11c28.21,-4.46 80.54,-12.15 81.94,-8.7 7,-2.43 9.32,-3.91 9.11,-4.94 5.7,0.15 19.28,-0.63 52.59,-4.56 -19.65,1.5 -33.69,3.44 -34.45,1.71 127.41,-12.72 28.54,-9.79 107.5,-18 -12.72,0.02 9.41,-4.25 37.59,-8.06 -0.28,9.98 156.37,-4.19 198.55,-1.09l10.23 3.09c3.86,-1.8 -1.56,-2.61 -10.23,-3.08l-0.51 -0.1 107.24 -3.72c-21.73,0.91 1.31,-3.84 32.37,-6.33l-5.06 0.3c33.91,-3.18 -41.47,-8.31 61,-10.65l53.91 0.14c-9.63,0.13 -0.5,-1.78 4.49,-2.76 18.5,-0.09 36.98,-0.18 55.48,0.31 84.32,-11.48 160.02,0.12 259.52,-4.17 -28.74,0.94 -72.55,0.54 -53.83,-2.48 19.31,-1.2 48.5,-0.35 63.52,0.98l-5.03 -1.05c63.34,0.83 126.56,5.41 189.7,7.94 -15.25,-3.45 -121.51,-5.48 -73.93,-8.31 28.22,-3.72 82.66,1.27 116.69,2.89 -4.5,2.03 -67.39,3.02 -4.01,5.94 7.8,-0.93 68.28,-1.05 39.93,-4.01 32.63,2.39 72.14,5.28 111.03,8.13 38.8,3.49 76.62,7.79 105.31,11.85 18.5,0.14 -10.28,-2.83 -19.88,-3.81l-4.73 0.4c-38.87,-3.89 -5.34,-7.05 -82.28,-9.13 -5.67,-9.11 110.81,4.97 178.17,8.2l-106.7 -12.74c91.14,-0.44 197.47,9.36 302.7,22.5 104.91,14.52 209.3,30.8 298.42,42.2 -52.78,-4.07 -96.02,-12 -91.09,-4.85 110.22,16.67 95.75,14.66 206.35,28.22l-9.48 -1.33c57.93,2.69 135.3,17.16 173.82,15.32 -24.23,-6.11 -81.98,-5.15 -82.19,-12.43 46.65,4.68 93.08,10.84 139.94,14.3 -43.58,-7.21 -139.85,-14.65 -193.09,-20.84 -38.54,-3.59 77.18,9.02 58.14,11.76 -130.7,-13.32 -159.46,-22.17 -222.03,-36.97 -11.45,-2.96 -10.59,-3.92 -3.35,-3.77 34.69,4.33 69.15,8.53 103.04,12.43 37.35,7.26 81.31,13.74 130.12,20.14 28.34,3.65 58.18,7.09 89.06,10.26 30.96,2.63 63.01,4.71 95.59,6.54l71.94 0.35c63.65,10.19 35.24,17.8 151.95,23.41l-34.42 -5.91c25.67,-0.05 42.46,0.4 54.8,1.15 -43.44,-5.32 -89.46,-10.33 -130.27,-16.02 53.93,3.78 106.29,6.86 157.68,9.51 37.85,4.09 76.23,8 111.37,9.43 -4.99,-1.22 -39.06,-2.7 -49.04,-5.18 145.31,3.75 297.47,16.77 410.26,15.86 47.51,-4.44 -93.55,-0.8 -70.35,-6.93 59.13,1.56 125.75,-4.47 141.76,0.37 -21.69,-4.83 86.27,-4.99 57.82,-6.46 21.94,-0.72 43.6,-1.54 64.81,-2.48 14.26,1.29 31.03,2.37 61.69,1.37 -14.5,-2.06 15.64,-3.77 46.43,-5.93 -11.69,0.67 -23.02,0.79 -34.4,0.79 88.65,-5.13 170.61,-12.03 245.48,-20.3 81.2,-7.46 161.59,-16.85 238.96,-29.13 -10.26,-0.14 -10.92,-1.76 -3.78,-4.59 13.68,-2.46 27.09,-4.96 40.04,-7.49 6.39,-0.54 11.94,-0.93 17.49,-1.22 20.14,-1.33 40.94,-4.57 110.28,-22.38 29.35,-10.87 22.09,-9.67 11.36,-8.22 38.57,-10.3 72.19,-20.69 100.27,-30.79 19.34,-6.61 36.24,-13.39 51.18,-20.23 24.11,-10.49 44.82,-21.98 60.11,-34.14 -2.4,0.87 -4.5,1.83 -7.48,3.48 11.99,-9.36 20.33,-18.59 25.24,-27.51 0.56,-0.96 1,-1.92 1.48,-2.92 1.66,-3.51 2.88,-6.98 3.49,-10.38 0.19,-0.89 0.75,-1.7 0.87,-2.58 2.84,-20.67 -15.08,-35.47 -23.41,-42.71l-1.53 -0.21c-0.09,-0.49 -0.16,-1.1 -0.25,-1.57l-0.17 0.1c0,-0.02 0,-0.04 -0.02,-0.06l-2.02 1.17 0.09 0.02 1.95 -1.13c0.1,0.56 0.14,0.91 0.25,1.45l-2.2 -0.31 -1.33 0.75c0,-0.02 0,-0.04 -0.02,-0.05l1.26 -0.72 -1.56 -0.23c0,-0.04 -0.01,-0.05 -0.03,-0.1l-0.12 0.09 -1.5 -0.21 -2.82 -0.4 1.31 1.28c0.21,0.21 0.45,0.47 0.66,0.68l-1 0.58c0.32,0.17 0.75,0.44 1.09,0.61l0.66 -0.38c0,0.02 0,0.05 0,0.07l-0.61 0.35c0.24,0.13 0.54,0.32 0.78,0.44 0.37,1.57 0.89,3.14 0.96,4.76 -1.66,-1.08 -3.33,-2.39 -4.95,-3.35l3.2 -1.85c-0.02,-0.02 -0.04,-0.04 -0.05,-0.04l-3.21 1.85 0.05 0.03 -0.15 0.09c1.9,1.06 3.42,2.27 5.13,3.41 0.73,21.64 -26.81,47.37 -87.17,72.12 -0.85,0.37 -1.64,0.68 -2.72,1.11 -4.68,1.88 -9.83,3.75 -14.91,5.64 -61,20.93 -160.73,41.7 -225.07,51.35 2.69,0.41 7.58,0.35 14.09,-0.18 -4.55,0.75 -8.78,1.54 -13.44,2.25 -38.69,6.02 -80.22,11.44 -123.28,16.45 -89.56,6.28 129.02,-22.32 9.25,-14.07 15.55,-1.87 31.22,-3.33 46.7,-5.55 -5.83,0.58 -7.42,0.18 -4.47,-0.75l61.57 -9.24c-38.24,4.66 -129.08,15.26 -87.91,5.27 29.84,-3.75 59.24,-9 88.85,-13.42 -24.57,-0.12 7.63,-6.21 1.73,-8.27 -87.11,11.06 -175.21,18.26 -263.5,23.21 10.67,1.46 48.89,-0.47 35.05,2.89 -70.46,7.3 -58.07,1.29 -124.27,8.26l29.7 1.08c-5.39,-0.77 -14.78,-0.56 -0.3,-1.78 23.07,-3.54 33.5,-2.27 33.91,-0.47 -22.79,5.84 -90.44,7.02 -110.62,5.8 -86.4,4.41 -17.31,7.31 -36.27,9.28 -11.71,-1 -27.07,-1.11 -44.35,-0.79 -4.22,-8.2 2.72,-3.62 -6.64,-10.24 -10.06,-7.14 -9.06,-1.64 -12.01,-8.45 -2.89,-6.81 1.96,-2.6 -6.16,-11.99 -8.1,-9.41 2.6,-3.58 -9.06,-10.06 -11.67,-6.5 -9.76,-3.57 -15.58,-7.47 -5.83,-3.89 -35.66,-9.72 -37.61,-8.76 -1.94,0.98 -7.14,5.53 -7.14,5.53 0,0 16.55,-0.64 -2.25,1.29 -18.83,1.94 -19.48,4.54 -24.35,1.94 -4.85,-2.6 -1.6,-0.65 -11.03,-4.54 -9.39,-3.89 -3.87,-0.31 -11.99,-5.52 -8.11,-5.19 0.65,-0.65 -12.01,-7.12 -12.63,-6.49 -4.85,-8.45 -20.42,-8.78 -15.56,-0.3 -1.95,0.33 -15.56,-0.3 -13.63,-0.66 -16.54,0 -16.54,0 0,0 -1.94,5.81 -3.24,-4.87 -1.29,-10.7 -1.29,-4.89 -1.29,-10.7l0 -6.16c0,-5.2 9.07,12.63 0,-5.2 -9.11,-17.85 -7.79,-14.93 -8.76,-17.85 -0.17,-0.51 -0.68,-1.29 -1.3,-2.22zm233.95 41.29c3.59,-0.81 7.52,-0.89 11.29,-0.97 -2.84,-0.93 -14.45,-0.69 -11.29,0.97zm69.46 5.59l7.46 -1.06 -0.3 -0.72 -7.17 1.78zm18.11 -62.65c-5.9,1.63 -14.16,0.97 -20.93,1.69 5.78,-0.66 16.86,1.48 20.93,-1.69zm-283.68 -10.8c0.84,-0.17 1.65,-0.35 2.57,-0.54 -1.98,0.13 -2.54,0.3 -2.57,0.54zm702.64 -25.51l0.96 -0.5c-0.38,-0.02 -0.85,-0.04 -1.46,-0.06l0.5 0.56zm38.33 -91.27c2.92,0.59 5.78,1.08 8.73,1.38 -1.95,-0.96 -5.64,-1.43 -8.73,-1.38zm-105.61 -1.35l-0.64 -1.39c-0.63,0.79 -0.28,1.19 0.64,1.39zm-3441.41 143.78c-45.45,10.81 -116.41,8.83 -138.48,18.06 33.61,-4.8 150.18,-14.1 138.48,-18.06zm476.98 107.06c24.37,0.57 48.73,0.47 73.08,1.62l9.43 -1.27c-27.49,-0.85 -55,-0.31 -82.5,-0.35zm276.5 8.17l106.18 6.37 -33.83 -3.47 -72.36 -2.89zm332.21 22.48l-38.87 -10.47c-9.17,-1.22 -9.17,4.21 38.87,10.47zm181.91 9.19c28.85,4.63 -0.16,-3.65 57.2,3.73l-52.78 -9.35 -4.42 5.62zm283.16 43.13c24.13,2.91 48.14,6.26 72.33,8.8 -0.37,-1.7 -24.24,-4.51 -34.08,-6.2 -14.53,-1.45 -67.02,-7.3 -38.24,-2.6zm1426.8 35.36c12.86,-0.91 25.19,-1.83 34.7,-2.92 -12.06,1.54 -23.51,2.37 -34.7,2.92zm253.32 -20.29c0,0 -14.27,1.97 -32.2,4.45 -18,2.2 -39.94,3.65 -55.09,3.77 45.22,0.11 46.37,3.68 124.25,-5.29 -10.87,-0.46 -161.13,14.8 -36.97,-2.93zm470.85 -97.71c24.33,-8.03 54.35,-19.1 84.31,-37.4 -43.02,22.13 -62.17,28.83 -84.31,37.4zm-43.2 12.38c18.33,-4.43 31.45,-8.46 43.2,-12.39 -16.65,5.11 -31.12,9.32 -43.2,12.39 -4.33,1.05 -8.69,2.09 -13.69,3.21 4.09,-0.83 8.73,-1.95 13.69,-3.21zm159.81 -64.35c-16.92,10.06 -22.1,16.97 -43.09,28.33 10.63,-5.3 29.08,-14.77 40.25,-23.04 11.19,-8.34 16.13,-13.14 2.85,-5.29zm-4837.68 207.26c-1.39,0.19 -3.11,0.44 -4.33,0.61 -1.57,0.33 -3.41,0.73 -5.13,1.12l9.46 -1.73zm-127.81 -19.8l0.46 -0.07 -4.57 -7.51c2.44,-0.35 5.53,-0.78 9.33,-1.28 -6.25,-1.6 60.74,-13.87 89.66,-19.18 -0.05,0.11 -0.54,0.26 -0.64,0.39 -7.23,1.89 -17.26,5.1 -28.05,8.92 -0.82,0.28 -1.68,0.59 -2.5,0.89 -22.16,5.76 -49.43,12.39 -58.56,17.21 -0.68,0.02 -2.27,0.21 -4.68,0.56l3.28 5.41c-0.12,0.07 -0.24,0.14 -0.38,0.21l-3.36 -5.54zm31.36 50.76l1.22 2.01c8.07,-4.65 9.27,-6.07 -1.22,-2.01zm3495.61 -173.99c0.71,0.18 1.47,0.35 2.27,0.52l0.04 3.97c-3.17,0.13 -7.08,0.13 -11.84,-0.04 -18.37,-5.02 -53.2,-4.79 -101.82,-7.69l-2.17 -229.72 -82.87 0 -1.02 -97.95 82.87 0 -0.8 -78.67 113.4 0 0.8 78.67 82.85 0 1.03 97.95 -82.87 0 2.39 232.98 -2.26 -0.03zm1458.84 -96.61c-4.99,7.96 -13.86,16.18 -24.15,24.65 4.01,-2.41 12.34,-4.02 24.15,-24.65zm-1663.24 208.8l26.66 3.09 0 0 -0 0c-6.3,-1.24 -14.03,-2.32 -26.66,-3.09zm-2493.73 -91.67c-1.38,0.14 -3.67,0.35 -5.08,0.49 0.39,-0.02 0.02,0.05 0.41,0.05 1.69,-0.21 2.89,-0.33 4.67,-0.54 10.21,-0.96 22.09,-2.34 39.27,-3.51 -17.8,1.03 -27.61,2.09 -39.27,3.51zm567.68 -31l-27.68 -0.47c-0.61,0.08 -1.33,0.19 -1.87,0.26 5.38,0.93 14.8,1.02 29.55,0.21zm1952.72 125.76c17.35,3.04 22.25,8.71 84.26,8.62 -22.81,-1.66 -52.76,-4.78 -84.26,-8.62zm-924.49 -213.72l9.92 0.52c0.08,0.11 0.12,0.21 0.14,0.31l-10.06 -0.83zm990.97 105.12l-0.08 -8.94c20.87,3.6 16.62,7.62 49.7,11.4 -21.52,-0.31 -37.16,-1.2 -49.61,-2.46zm-1522.56 -26.83c-43.63,-2.93 -87.41,-3.68 -131.16,-5.23 42.53,1.31 85.09,1.67 127.54,4.29l-15.89 -4.15 24.37 4.59 -8.48 -0.44 3.63 0.94zm-1522.33 38.78c-46.28,11.85 -92.18,24.57 -136.38,38.19 -1.41,0.39 -2.85,0.79 -3.93,1.07 38.22,-13.69 114.04,-34.91 140.31,-39.26zm-50.56 2.88l29.5 -4.89 -50.09 14.36 20.59 -9.47zm1907.73 -139.72c-53.44,-2.2 -111.74,-5.78 -125.54,-4.38 -5.64,-3.18 100.85,-2.37 125.54,4.38zm1892.69 147.13c-15.39,0.53 -31.19,0.84 -46.85,1.22 -0.3,-0.7 0.91,-1.38 -1.83,-1.87 17.91,-0.12 38.61,-0.02 48.68,0.64zm308.23 -24.99c14.76,0.52 39.79,0.18 65.38,-1.6 -32.17,3.68 -65.16,7.14 -99.52,10.19 -12.34,0.57 -24.68,1.15 -37.04,1.45 23.8,-3.89 8.28,-5.15 71.18,-10.04zm-2400.48 -24.14c12.44,1.48 25.83,2.88 38.65,3.86 -23.72,-1.96 -34,-3.07 -38.65,-3.86 -4.61,-0.52 -8.92,-1.03 -12.84,-1.54 3.33,0.19 6.66,0.37 10,0.54 -0.16,0.3 0.4,0.61 2.85,1zm-1153.88 -64.65l-58.93 5.51 4.73 -1.34 58.31 -5.45 -4.11 1.28z"/>
  </g>
 </g>
</svg>
